HIERARCHY
ROOT Hips
{
	OFFSET 0.00 0.00 0.00
	CHANNELS 6 Xposition Yposition Zposition Xrotation Yrotation Zrotation
	JOINT Spine
	{
		OFFSET 0.00000 7.50895 0.00000
		CHANNELS 3 Xrotation Yrotation Zrotation
		JOINT Head
		{
			OFFSET 0.00000 13.86115 0.00000
			CHANNELS 3 Xrotation Yrotation Zrotation
			End Site
			{
				OFFSET 0.00000 4.52755 0.00000
			}
		}
		JOINT LeftShoulder
		{
			OFFSET 0.00000 8.20478 0.00000
			CHANNELS 3 Xrotation Yrotation Zrotation
			JOINT LeftArm
			{
				OFFSET 6.63596 0.00000 0.00000
				CHANNELS 3 Xrotation Yrotation Zrotation
				JOINT LeftForeArm
				{
					OFFSET 10.27422 0.00000 0.00000
					CHANNELS 3 Yrotation Zrotation Xrotation
					JOINT LeftHand
					{
						OFFSET 8.52215 0.00000 0.00000
						CHANNELS 3 Xrotation Yrotation Zrotation
						JOINT LeftHandThumb1
						{
							OFFSET 0.00000 0.00000 0.00000
							CHANNELS 3 Xrotation Zrotation Yrotation
							End Site
							{
								OFFSET 0.00000 0.00000 3.93700
							}
						}
						End Site
						{
							OFFSET 3.93700 0.00000 0.00000
						}
					}
				}
			}
		}
		JOINT RightShoulder
		{
			OFFSET 0.00000 8.20478 0.00000
			CHANNELS 3 Xrotation Yrotation Zrotation
			JOINT RightArm
			{
				OFFSET -6.63596 0.00000 0.00000
				CHANNELS 3 Xrotation Yrotation Zrotation
				JOINT RightForeArm
				{
					OFFSET -10.27422 0.00000 0.00000
					CHANNELS 3 Yrotation Zrotation Xrotation
					JOINT RightHand
					{
						OFFSET -8.52215 0.00000 0.00000
						CHANNELS 3 Xrotation Yrotation Zrotation
						JOINT RightHandThumb1
						{
							OFFSET 0.00000 0.00000 0.00000
							CHANNELS 3 Xrotation Zrotation Yrotation
							End Site
							{
								OFFSET 0.00000 0.00000 3.93700
							}
						}
						End Site
						{
							OFFSET -3.93700 0.00000 0.00000
						}
					}
				}
			}
		}
	}
	JOINT LeftUpLeg
	{
		OFFSET 3.00056 0.00000 0.00000
		CHANNELS 3 Xrotation Yrotation Zrotation
		JOINT LeftLeg
		{
			OFFSET 0.00000 -16.49085 0.00000
			CHANNELS 3 Xrotation Yrotation Zrotation
			JOINT LeftFoot
			{
				OFFSET 0.00000 -14.55658 0.00000
				CHANNELS 3 Xrotation Yrotation Zrotation
				JOINT LeftToeBase
				{
					OFFSET 0.00000 -1.25038 4.66650
					CHANNELS 3 Xrotation Yrotation Zrotation
					End Site
					{
						OFFSET 0.00000 0.00000 2.95275
					}
				}
			}
		}
	}
	JOINT RightUpLeg
	{
		OFFSET -3.00056 0.00000 0.00000
		CHANNELS 3 Xrotation Yrotation Zrotation
		JOINT RightLeg
		{
			OFFSET 0.00000 -16.49085 0.00000
			CHANNELS 3 Xrotation Yrotation Zrotation
			JOINT RightFoot
			{
				OFFSET 0.00000 -14.55658 0.00000
				CHANNELS 3 Xrotation Yrotation Zrotation
				JOINT RightToeBase
				{
					OFFSET 0.00000 -1.25038 4.66650
					CHANNELS 3 Xrotation Yrotation Zrotation
					End Site
					{
						OFFSET 0.00000 0.00000 2.95275
					}
				}
			}
		}
	}
}
MOTION
Frames: 13
Frame Time: 0.008333
 -4.7118 32.8767 -3.4184 12.0844 2.7024 -1.8495 -12.0233 3.4375 0.8814 -9.1080 -5.3308 11.7227 11.6088 23.7668 27.4359 -31.7064 -1.7475 -26.6345 -14.9544 -0.0000 14.5546 2.2264 27.7175 -4.7782 33.1476 -0.0000 26.2537 -22.1919 -11.5394 -38.1179 -2.3597 -13.0044 30.5488 17.5762 -0.0000 32.9043 2.8414 -13.1544 12.3030 32.8623 0.0000 -24.3270 -7.3480 3.0658 5.3260 -0.8240 -0.0000 -0.0000 -7.3450 12.5393 -14.6516 9.9972 -0.0000 -0.0000 -9.0083 -7.5491 -1.1309 3.2252 0.0000 0.0000 -8.8847 0.8476 -17.4465 1.2867 0.0000 -0.0000
 -4.7116 32.8767 -3.4170 12.0812 2.7056 -1.8465 -12.0199 3.4294 0.8852 -9.0974 -5.3413 11.7219 11.6147 23.7803 27.4239 -31.7163 -1.7594 -26.6221 -14.9427 -0.0000 14.5385 2.2373 27.6864 -4.8063 33.1476 -0.0000 26.2537 -22.1868 -11.5398 -38.1108 -2.3884 -12.9936 30.5389 17.5420 -0.0000 32.8788 2.8386 -13.1125 12.3287 32.8623 0.0000 -24.3270 -7.3414 3.0682 5.3233 -0.8283 0.0000 -0.0000 -7.3388 12.5269 -14.6621 9.9657 -0.0000 -0.0000 -9.0003 -7.5443 -1.1349 3.2216 -0.0000 -0.0000 -8.8828 0.8472 -17.4257 1.2931 -0.0000 0.0000
 -4.7116 32.8763 -3.4154 12.0797 2.7135 -1.8471 -12.0218 3.4321 0.8854 -9.0759 -5.3323 11.7201 11.6206 23.7832 27.4378 -31.7386 -1.7530 -26.6304 -14.9529 -0.0000 14.5308 2.2687 27.7079 -4.8701 33.1476 -0.0000 26.2537 -22.1820 -11.5504 -38.1043 -2.3913 -12.9920 30.5299 17.5406 -0.0000 32.8834 2.8404 -13.0963 12.3509 32.8623 0.0000 -24.3270 -7.3390 3.0737 5.3221 -0.8277 0.0000 0.0000 -7.3444 12.5148 -14.6243 10.0009 0.0000 0.0000 -8.9962 -7.5627 -1.1346 3.2225 -0.0000 -0.0000 -8.8839 0.8474 -17.4290 1.2698 -0.0000 0.0000
 -4.7115 32.8763 -3.4147 12.0799 2.7117 -1.8470 -12.0195 3.4426 0.8907 -9.0698 -5.3466 11.7098 11.6205 23.7793 27.4406 -31.7574 -1.7386 -26.6282 -14.9636 -0.0000 14.5218 2.2921 27.7123 -4.9194 33.1476 -0.0000 26.2537 -22.1862 -11.5565 -38.0997 -2.3693 -12.9799 30.5253 17.5445 -0.0000 32.8570 2.8427 -13.1328 12.3279 32.8623 0.0000 -24.3270 -7.3373 3.0712 5.3232 -0.8263 0.0000 0.0000 -7.3444 12.5237 -14.6706 10.0106 -0.0000 0.0000 -8.9942 -7.5461 -1.1343 3.2228 -0.0000 0.0000 -8.8984 0.8430 -17.4389 1.3116 0.0000 -0.0000
 -4.7109 32.8763 -3.4131 12.0791 2.7139 -1.8427 -12.0189 3.4333 0.8937 -9.0565 -5.3304 11.7030 11.6330 23.7947 27.4290 -31.7741 -1.7361 -26.6223 -14.9725 -0.0000 14.5402 2.3052 27.7227 -4.9457 33.1476 -0.0000 26.2537 -22.1857 -11.5608 -38.1015 -2.3960 -12.9673 30.5306 17.5154 -0.0000 32.8514 2.8293 -12.9835 12.4057 32.8623 0.0000 -24.3270 -7.3333 3.0683 5.3188 -0.8261 -0.0000 -0.0000 -7.3524 12.5122 -14.6470 9.9904 -0.0000 -0.0000 -8.9866 -7.5507 -1.1394 3.2135 0.0000 0.0000 -8.8953 0.8550 -17.4507 1.3324 0.0000 0.0000
 -4.7074 32.8759 -3.4075 12.0635 2.6612 -1.8328 -12.0183 3.4833 0.9113 -9.0332 -5.3226 11.6887 11.6274 23.7980 27.4269 -31.7486 -1.7536 -26.6247 -14.9615 -0.0000 14.5288 2.3013 27.7117 -4.9392 33.1476 -0.0000 26.2537 -22.1765 -11.5605 -38.0969 -2.4186 -12.9649 30.5148 17.5112 -0.0000 32.8630 2.8311 -12.9598 12.4351 32.8623 0.0000 -24.3270 -7.2902 3.1331 5.3084 -0.8563 0.0000 -0.0000 -7.3507 12.5070 -14.6185 9.9928 0.0000 -0.0000 -8.9683 -7.4929 -1.1463 3.2139 0.0000 0.0000 -8.8907 0.8366 -17.4079 1.2584 0.0000 -0.0000
 -4.7070 32.8756 -3.4068 12.0677 2.6598 -1.8360 -12.0233 3.4959 0.9235 -9.0254 -5.3234 11.6847 11.6363 23.7896 27.4279 -31.7366 -1.7574 -26.6279 -14.9715 -0.0000 14.5332 2.2914 27.7250 -4.9159 33.1476 -0.0000 26.2537 -22.1820 -11.5744 -38.1173 -2.4067 -12.9487 30.5400 17.5062 -0.0000 32.8436 2.8103 -12.9500 12.3554 32.8623 0.0000 -24.3270 -7.2956 3.1425 5.3107 -0.8507 -0.0000 -0.0000 -7.3658 12.5029 -14.6375 10.0521 -0.0000 0.0000 -8.9728 -7.4815 -1.1444 3.2199 0.0000 0.0000 -8.9030 0.8338 -17.4452 1.3289 0.0000 -0.0000
 -4.7067 32.8752 -3.4056 12.0692 2.6674 -1.8338 -12.0202 3.4877 0.9287 -9.0286 -5.3030 11.6700 11.6119 23.7729 27.4479 -31.6829 -1.7768 -26.6276 -14.8951 -0.0000 14.4840 2.2845 27.5643 -4.9272 33.1476 -0.0000 26.2537 -22.1970 -11.5559 -38.1412 -2.3927 -12.9744 30.5727 17.5054 -0.0000 32.8843 2.7911 -12.8657 12.3501 32.8623 0.0000 -24.3270 -7.2967 3.1432 5.3066 -0.8525 -0.0000 -0.0000 -7.3510 12.4928 -14.6247 9.9321 0.0000 -0.0000 -8.9688 -7.4891 -1.1484 3.2135 0.0000 0.0000 -8.9002 0.8404 -17.4419 1.3032 0.0000 0.0000
 -4.7071 32.8752 -3.4053 12.0765 2.6686 -1.8356 -12.0264 3.4922 0.9349 -9.0235 -5.3042 11.6784 11.6113 23.7626 27.4532 -31.6653 -1.7732 -26.6295 -14.9060 -0.0000 14.4824 2.2831 27.5690 -4.9235 33.1476 -0.0000 26.2537 -22.2066 -11.5504 -38.1431 -2.3740 -12.9814 30.5802 17.5125 -0.0000 32.8882 2.7839 -12.8454 12.3377 32.8623 0.0000 -24.3270 -7.3042 3.1378 5.3097 -0.8475 -0.0000 0.0000 -7.3630 12.4929 -14.6401 9.9822 -0.0000 -0.0000 -8.9762 -7.4868 -1.1469 3.2140 -0.0000 -0.0000 -8.9024 0.8318 -17.4160 1.2719 -0.0000 0.0000
 -4.7062 32.8754 -3.4044 12.0773 2.6706 -1.8283 -12.0265 3.4847 0.9283 -9.0138 -5.2890 11.7006 11.6256 23.7688 27.4425 -31.6731 -1.7712 -26.6214 -14.9139 -0.0000 14.4831 2.2918 27.5859 -4.9394 33.1476 -0.0000 26.2537 -22.1975 -11.5480 -38.1351 -2.4477 -13.0077 30.5855 17.4855 -0.0000 32.9619 2.7838 -12.7812 12.3962 32.8623 0.0000 -24.3270 -7.3037 3.1299 5.3004 -0.8440 0.0000 0.0000 -7.3634 12.4996 -14.6281 10.0012 -0.0000 -0.0000 -8.9785 -7.4873 -1.1555 3.2202 0.0000 -0.0000 -8.9134 0.8282 -17.4244 1.2909 -0.0000 -0.0000
 -4.7065 32.8753 -3.4038 12.0763 2.6714 -1.8292 -12.0185 3.4876 0.9287 -9.0114 -5.3083 11.7302 11.6345 23.7828 27.4403 -31.7105 -1.7747 -26.6325 -14.9118 -0.0000 14.4795 2.2694 27.5898 -4.8907 33.1476 -0.0000 26.2537 -22.2060 -11.5420 -38.1289 -2.4331 -13.0256 30.5938 17.4951 -0.0000 33.0195 2.7726 -12.6862 12.4358 32.8623 0.0000 -24.3270 -7.3064 3.1327 5.3019 -0.8373 -0.0000 -0.0000 -7.3687 12.5066 -14.6426 10.0137 0.0000 -0.0000 -8.9761 -7.4800 -1.1541 3.2218 -0.0000 0.0000 -8.9068 0.8346 -17.4370 1.2806 0.0000 -0.0000
 -4.7065 32.8755 -3.4033 12.0744 2.6787 -1.8322 -12.0144 3.4866 0.9304 -8.9972 -5.2971 11.7444 11.6531 23.8014 27.4374 -31.7831 -1.7232 -26.6518 -15.0075 -0.0000 14.5529 2.3232 27.5877 -5.0065 33.1476 -0.0000 26.2537 -22.2118 -11.5599 -38.1137 -2.4466 -12.9989 30.5904 17.4634 -0.0000 33.0522 2.7594 -12.6073 12.4522 32.8623 0.0000 -24.3270 -7.2995 3.0924 5.3056 -0.8406 -0.0000 0.0000 -7.3602 12.5470 -14.6845 10.0479 -0.0000 0.0000 -8.9709 -7.4822 -1.1516 3.2180 -0.0000 -0.0000 -8.9122 0.8209 -17.4456 1.2795 0.0000 0.0000
 -4.7066 32.8755 -3.4024 12.0711 2.6781 -1.8350 -12.0089 3.4892 0.9376 -8.9873 -5.3209 11.7719 11.6697 23.8101 27.4272 -31.8170 -1.7312 -26.6635 -15.0018 -0.0000 14.5515 2.3186 27.6304 -4.9897 33.1476 -0.0000 26.2537 -22.2037 -11.5640 -38.1083 -2.4270 -12.9775 30.6006 17.4469 -0.0000 33.0104 2.7466 -12.5874 12.4147 32.8623 0.0000 -24.3270 -7.2939 3.0966 5.3081 -0.8413 -0.0000 0.0000 -7.3667 12.5335 -14.6704 9.9954 -0.0000 -0.0000 -8.9657 -7.4785 -1.1477 3.2173 -0.0000 0.0000 -8.9059 0.8105 -17.4435 1.2800 0.0000 -0.0000
